<?xml version="1.0" standalone="no"?>
<!DOCTYPE svg PUBLIC "-//W3C//DTD SVG 20010904//EN"
 "http://www.w3.org/TR/2001/REC-SVG-20010904/DTD/svg10.dtd">
<svg version="1.0" xmlns="http://www.w3.org/2000/svg"
 width="80px" height="80px" viewBox="0 0 500.000000 500.000000"
 preserveAspectRatio="xMidYMid meet">

<g transform="translate(0.000000,500.000000) scale(0.100000,-0.100000)"
fill="#ffffff" stroke="none">
<path d="M378 3190 c-22 -17 -41 -20 -123 -20 -129 0 -175 -24 -175 -94 0 -38
10 -55 41 -71 38 -20 82 -19 109 3 29 23 18 46 -17 37 -54 -13 -85 24 -47 56
18 15 194 30 194 17 0 -4 -4 -17 -9 -30 -6 -13 -17 -49 -26 -80 -14 -53 -17
-57 -48 -60 -40 -4 -53 -38 -14 -38 13 0 26 -2 29 -5 6 -7 -16 -74 -38 -116
-24 -47 -84 -35 -84 17 0 13 4 26 10 29 16 10 12 42 -6 49 -36 14 -74 -30 -74
-86 1 -53 28 -80 88 -86 90 -8 124 19 166 130 22 57 27 63 55 66 27 3 32 7 29
25 -2 12 -10 22 -18 23 -8 1 -18 2 -22 2 -3 1 8 46 24 100 40 126 41 146 7
150 -14 2 -36 -6 -51 -18z"/>
<path d="M1971 3181 c-18 -16 -63 -42 -100 -56 -36 -15 -77 -32 -90 -39 -25
-11 -61 -61 -61 -84 0 -23 57 -72 84 -72 30 0 35 23 11 46 -19 20 -19 48 0 64
27 23 143 78 140 66 -2 -6 -23 -74 -45 -151 -23 -77 -48 -159 -56 -183 -17
-52 -13 -62 26 -62 36 0 41 9 75 130 38 132 70 195 130 258 40 40 59 53 76 50
33 -4 36 -46 8 -139 -12 -41 -29 -113 -37 -161 -19 -103 -11 -151 30 -181 27
-20 28 -20 48 -2 24 22 25 38 4 56 -23 19 -13 123 24 249 40 135 42 191 6 219
-15 12 -36 21 -48 21 -32 0 -96 -38 -133 -79 -35 -39 -38 -36 -22 23 8 31 8
41 -3 47 -21 14 -33 11 -67 -20z"/>
<path d="M893 3167 c-41 -47 -79 -130 -98 -217 -21 -97 -41 -137 -84 -166 -46
-31 -118 -33 -149 -4 -36 34 -28 50 24 50 61 0 112 25 131 66 30 63 -10 117
-86 116 -73 -1 -140 -56 -161 -130 -14 -51 -13 -68 7 -109 20 -42 62 -63 128
-63 58 0 103 19 140 58 l29 31 11 -32 c5 -17 21 -37 35 -45 37 -19 115 -10
145 18 14 13 26 22 27 19 2 -2 8 -13 14 -24 9 -16 22 -20 60 -19 43 0 51 4 87
44 21 24 57 83 81 130 l42 86 29 -18 c17 -10 38 -18 48 -18 9 0 17 -3 17 -6 0
-15 -75 -107 -122 -149 -33 -29 -48 -50 -44 -60 8 -23 34 -29 61 -15 14 8 37
10 57 6 18 -4 44 -9 58 -12 15 -3 40 4 65 18 55 32 131 148 96 148 -4 0 -21
-20 -36 -45 -16 -24 -42 -51 -59 -58 -30 -14 -106 -12 -106 2 0 4 24 38 54 75
29 37 62 83 72 102 17 30 17 36 4 44 -8 5 -38 7 -67 3 -66 -7 -103 13 -103 56
0 31 -19 45 -46 34 -12 -4 -15 -15 -11 -42 10 -80 -94 -281 -145 -281 -25 0
-23 36 7 139 14 47 25 89 25 93 0 11 -42 27 -57 21 -6 -3 -24 -43 -38 -89 -33
-106 -82 -164 -137 -164 -41 0 -48 11 -48 74 0 40 3 44 57 82 94 65 149 171
123 239 -14 37 -26 45 -71 45 -29 0 -43 -7 -66 -33z m78 -29 c3 -35 -5 -67
-28 -110 -26 -48 -73 -100 -73 -81 0 14 19 71 36 110 8 17 14 35 14 40 0 14
30 53 41 53 5 0 9 -6 10 -12z m-316 -188 c7 -12 -12 -50 -34 -67 -20 -16 -71
-17 -71 -1 0 6 11 26 26 45 25 33 66 45 79 23z"/>
<path d="M3437 3163 c-8 -21 -22 -63 -32 -94 l-17 -56 -51 -7 c-73 -8 -122
-46 -166 -128 -42 -78 -77 -118 -103 -118 -23 0 -23 18 3 116 34 125 34 130 9
137 -35 9 -49 -2 -61 -47 -25 -97 -34 -119 -59 -146 -25 -27 -75 -49 -86 -37
-3 2 8 31 25 63 16 33 33 82 36 110 7 47 5 52 -15 57 -32 8 -49 -2 -56 -32
-18 -91 -39 -144 -61 -154 -13 -5 -23 -18 -23 -27 0 -21 -20 -40 -42 -40 -26
0 -24 48 7 149 13 46 22 87 19 92 -3 5 -18 9 -34 9 -27 0 -30 -5 -55 -82 -29
-90 -83 -168 -116 -168 -23 0 -25 24 -5 100 14 50 13 56 -1 68 -30 22 -43 13
-68 -45 -33 -73 -71 -123 -95 -123 -54 0 -19 135 48 185 30 22 105 26 124 7
17 -17 45 -15 52 4 8 21 -16 39 -72 55 -112 31 -245 -73 -259 -206 -4 -33 0
-45 22 -69 23 -25 31 -28 68 -23 30 4 50 15 69 36 33 37 38 38 38 6 0 -29 32
-49 66 -41 13 4 39 20 58 36 l34 30 6 -25 c3 -13 16 -30 28 -36 29 -16 104 -5
137 18 18 14 37 19 58 16 18 -3 46 2 64 11 41 20 39 21 39 -9 0 -55 82 -61
138 -11 l38 35 17 -29 c10 -16 27 -32 38 -35 36 -12 87 4 112 35 l25 29 12
-30 c21 -50 80 -48 130 4 l24 25 18 -29 c31 -51 98 -51 149 0 l28 28 10 -28
c6 -16 17 -32 25 -35 23 -9 80 13 106 41 l23 25 18 -29 c10 -16 27 -32 39 -36
37 -12 87 4 113 35 l25 29 12 -30 c14 -33 44 -45 80 -30 35 15 52 30 88 80 35
48 40 71 17 71 -8 0 -15 -6 -15 -13 0 -19 -69 -97 -86 -97 -33 0 -9 131 61
337 34 98 33 105 -11 101 -36 -3 -36 -3 -67 -94 l-31 -92 -50 -6 c-72 -8 -120
-46 -168 -131 -40 -72 -79 -115 -104 -115 -18 0 -18 50 1 113 14 48 14 48 -11
57 -14 6 -27 10 -30 10 -3 0 -18 -28 -34 -62 -55 -122 -116 -157 -113 -67 1
59 39 120 88 143 34 17 39 17 91 0 47 -15 57 -15 64 -3 13 20 -14 45 -66 59
-91 26 -194 -32 -244 -136 -27 -56 -76 -114 -96 -114 -32 0 -13 115 52 309 19
57 33 110 30 118 -3 7 -19 13 -35 13 -24 0 -31 -6 -44 -37z m-72 -235 c-8 -39
-50 -126 -73 -151 -24 -27 -56 -18 -60 17 -8 69 60 166 116 166 21 0 23 -3 17
-32z m725 22 c0 -26 -42 -125 -66 -157 -32 -43 -67 -43 -72 0 -5 42 27 115 62
142 31 25 76 34 76 15z"/>
<path d="M4810 3173 c-51 -20 -99 -108 -72 -135 13 -13 52 7 52 26 0 7 10 25
21 40 28 35 67 32 89 -7 14 -25 13 -30 -5 -65 -15 -27 -31 -41 -62 -52 -48
-16 -61 -50 -20 -50 13 0 34 -10 46 -21 19 -18 22 -29 18 -66 -6 -56 -30 -83
-73 -83 -38 0 -64 29 -64 72 0 24 -4 28 -30 28 -28 0 -30 -2 -30 -40 0 -58 40
-100 102 -107 88 -10 147 27 168 108 13 46 -6 101 -40 119 -22 12 -22 12 7 30
68 41 83 117 35 171 -23 26 -37 32 -78 35 -27 2 -56 1 -64 -3z"/>
<path d="M1091 3126 c-20 -23 -10 -60 17 -64 32 -5 54 16 50 47 -2 20 -9 27
-29 29 -14 2 -31 -4 -38 -12z"/>
<path d="M3062 3128 c-19 -19 -14 -56 8 -63 44 -14 85 30 58 62 -13 16 -50 17
-66 1z"/>
<path d="M4493 3000 c-40 -33 -73 -66 -73 -72 0 -7 19 -42 41 -80 28 -46 47
-68 60 -68 33 0 32 26 -6 84 l-36 57 28 22 c69 54 96 84 90 100 -10 27 -28 20
-104 -43z"/>
</g>
</svg>
